<?xml version="1.0" encoding="us-ascii" standalone="no"?><svg xmlns="http://www.w3.org/2000/svg" xmlns:xlink="http://www.w3.org/1999/xlink" contentStyleType="text/css" height="218px" preserveAspectRatio="none" style="width:1046px;height:218px;background:#FFFFFF;" version="1.1" viewBox="0 0 1046 218" width="1046px" zoomAndPan="magnify"><defs/><g><text fill="#000000" font-family="sans-serif" font-size="14" font-weight="bold" lengthAdjust="spacing" textLength="78" x="10" y="24.5332">PrimaryKey</text><line style="stroke:#181818;stroke-width:1.5;" x1="40" x2="40" y1="79.4141" y2="79.4141"/><rect fill="none" height="27.6094" style="stroke:#181818;stroke-width:0.5;" width="87" x="40" y="65.6094"/><text fill="#000000" font-family="sans-serif" font-size="14" lengthAdjust="spacing" textLength="77" x="45" y="85.1426">Object Type</text><line style="stroke:#181818;stroke-width:1.5;" x1="127" x2="147" y1="79.4141" y2="79.4141"/><rect fill="none" height="27.6094" style="stroke:#181818;stroke-width:1.0;stroke-dasharray:5.0,5.0;" width="38" x="147" y="65.6094"/><text fill="#000000" font-family="sans-serif" font-size="14" lengthAdjust="spacing" textLength="28" x="152" y="85.1426">u\00</text><line style="stroke:#181818;stroke-width:1.5;" x1="185" x2="205" y1="79.4141" y2="79.4141"/><rect fill="none" height="27.6094" style="stroke:#181818;stroke-width:0.5;" width="87" x="205" y="65.6094"/><text fill="#000000" font-family="sans-serif" font-size="14" lengthAdjust="spacing" textLength="77" x="210" y="85.1426">Collection Id</text><line style="stroke:#181818;stroke-width:1.5;" x1="292" x2="312" y1="79.4141" y2="79.4141"/><path d="M320,71.4141 C320,77.4141 318,79.4141 312,79.4141 " fill="none" style="stroke:#181818;stroke-width:1.5;"/><line style="stroke:#181818;stroke-width:1.5;" x1="320" x2="320" y1="50.6094" y2="71.4141"/><path d="M320,50.6094 C320,44.6094 322,42.6094 328,42.6094 " fill="none" style="stroke:#181818;stroke-width:1.5;"/><line style="stroke:#181818;stroke-width:1.5;" x1="328" x2="519" y1="42.6094" y2="42.6094"/><path d="M402.4,42.6094 L402.4,39.6094 L408.4,42.6094 L402.4,45.6094 L402.4,42.6094 " fill="#181818" style="stroke:#181818;stroke-width:1.5;"/><path d="M527,71.4141 C527,77.4141 529,79.4141 535,79.4141 " fill="none" style="stroke:#181818;stroke-width:1.5;"/><line style="stroke:#181818;stroke-width:1.5;" x1="527" x2="527" y1="50.6094" y2="71.4141"/><path d="M519,42.6094 C525,42.6094 527,44.6094 527,50.6094 " fill="none" style="stroke:#181818;stroke-width:1.5;"/><line style="stroke:#181818;stroke-width:1.5;" x1="312" x2="327" y1="79.4141" y2="79.4141"/><line style="stroke:#181818;stroke-width:1.5;" x1="520" x2="535" y1="79.4141" y2="79.4141"/><path d="M335,71.4141 C335,77.4141 337,79.4141 343,79.4141 " fill="none" style="stroke:#181818;stroke-width:1.5;"/><line style="stroke:#181818;stroke-width:1.5;" x1="335" x2="335" y1="66.6094" y2="71.4141"/><path d="M335,66.6094 C335,60.6094 337,58.6094 343,58.6094 " fill="none" style="stroke:#181818;stroke-width:1.5;"/><line style="stroke:#181818;stroke-width:1.5;" x1="342" x2="505" y1="58.6094" y2="58.6094"/><path d="M437.8,58.6094 L437.8,55.6094 L431.8,58.6094 L437.8,61.6094 L437.8,58.6094 " fill="#181818" style="stroke:#181818;stroke-width:1.5;"/><path d="M512,71.4141 C512,77.4141 510,79.4141 504,79.4141 " fill="none" style="stroke:#181818;stroke-width:1.5;"/><line style="stroke:#181818;stroke-width:1.5;" x1="512" x2="512" y1="66.6094" y2="71.4141"/><path d="M504,58.6094 C510,58.6094 512,60.6094 512,66.6094 " fill="none" style="stroke:#181818;stroke-width:1.5;"/><line style="stroke:#181818;stroke-width:1.5;" x1="327" x2="342" y1="79.4141" y2="79.4141"/><line style="stroke:#181818;stroke-width:1.5;" x1="505" x2="520" y1="79.4141" y2="79.4141"/><line style="stroke:#181818;stroke-width:1.5;" x1="342" x2="342" y1="79.4141" y2="79.4141"/><rect fill="none" height="27.6094" style="stroke:#181818;stroke-width:1.0;stroke-dasharray:5.0,5.0;" width="38" x="342" y="65.6094"/><text fill="#000000" font-family="sans-serif" font-size="14" lengthAdjust="spacing" textLength="28" x="347" y="85.1426">u\00</text><line style="stroke:#181818;stroke-width:1.5;" x1="380" x2="400" y1="79.4141" y2="79.4141"/><rect fill="none" height="27.6094" style="stroke:#181818;stroke-width:0.5;" width="105" x="400" y="65.6094"/><text fill="#000000" font-family="sans-serif" font-size="14" lengthAdjust="spacing" textLength="95" x="405" y="85.1426">object property</text><ellipse cx="14" cy="79.4141" fill="none" rx="4" ry="4" style="stroke:#181818;stroke-width:2.0;"/><ellipse cx="565" cy="79.4141" fill="#181818" rx="4" ry="4" style="stroke:#181818;stroke-width:1.0;"/><line style="stroke:#181818;stroke-width:1.5;" x1="18" x2="40" y1="79.4141" y2="79.4141"/><line style="stroke:#181818;stroke-width:1.5;" x1="535" x2="561" y1="79.4141" y2="79.4141"/><path d="M546,79.4141 L546,76.4141 L552,79.4141 L546,82.4141 L546,79.4141 " fill="#181818" style="stroke:#181818;stroke-width:1.5;"/><text fill="#000000" font-family="sans-serif" font-size="14" font-weight="bold" lengthAdjust="spacing" textLength="53" x="10" y="122.752">SubKey</text><line style="stroke:#181818;stroke-width:1.5;" x1="40" x2="40" y1="177.6328" y2="177.6328"/><rect fill="none" height="27.6094" style="stroke:#181818;stroke-width:0.5;" width="112" x="40" y="163.8281"/><text fill="#000000" font-family="sans-serif" font-size="14" lengthAdjust="spacing" textLength="102" x="45" y="183.3613">SubObject Type</text><line style="stroke:#181818;stroke-width:1.5;" x1="152" x2="172" y1="177.6328" y2="177.6328"/><rect fill="none" height="27.6094" style="stroke:#181818;stroke-width:1.0;stroke-dasharray:5.0,5.0;" width="38" x="172" y="163.8281"/><text fill="#000000" font-family="sans-serif" font-size="14" lengthAdjust="spacing" textLength="28" x="177" y="183.3613">u\00</text><line style="stroke:#181818;stroke-width:1.5;" x1="210" x2="230" y1="177.6328" y2="177.6328"/><rect fill="none" height="27.6094" style="stroke:#181818;stroke-width:0.5;" width="87" x="230" y="163.8281"/><text fill="#000000" font-family="sans-serif" font-size="14" lengthAdjust="spacing" textLength="77" x="235" y="183.3613">Collection Id</text><line style="stroke:#181818;stroke-width:1.5;" x1="317" x2="337" y1="177.6328" y2="177.6328"/><rect fill="none" height="27.6094" style="stroke:#181818;stroke-width:1.0;stroke-dasharray:5.0,5.0;" width="38" x="337" y="163.8281"/><text fill="#000000" font-family="sans-serif" font-size="14" lengthAdjust="spacing" textLength="28" x="342" y="183.3613">u\00</text><line style="stroke:#181818;stroke-width:1.5;" x1="375" x2="395" y1="177.6328" y2="177.6328"/><rect fill="none" height="27.6094" style="stroke:#181818;stroke-width:0.5;" width="87" x="395" y="163.8281"/><text fill="#000000" font-family="sans-serif" font-size="14" lengthAdjust="spacing" textLength="77" x="400" y="183.3613">Object Type</text><line style="stroke:#181818;stroke-width:1.5;" x1="482" x2="502" y1="177.6328" y2="177.6328"/><path d="M510,169.6328 C510,175.6328 508,177.6328 502,177.6328 " fill="none" style="stroke:#181818;stroke-width:1.5;"/><line style="stroke:#181818;stroke-width:1.5;" x1="510" x2="510" y1="148.8281" y2="169.6328"/><path d="M510,148.8281 C510,142.8281 512,140.8281 518,140.8281 " fill="none" style="stroke:#181818;stroke-width:1.5;"/><line style="stroke:#181818;stroke-width:1.5;" x1="518" x2="713" y1="140.8281" y2="140.8281"/><path d="M594,140.8281 L594,137.8281 L600,140.8281 L594,143.8281 L594,140.8281 " fill="#181818" style="stroke:#181818;stroke-width:1.5;"/><path d="M721,169.6328 C721,175.6328 723,177.6328 729,177.6328 " fill="none" style="stroke:#181818;stroke-width:1.5;"/><line style="stroke:#181818;stroke-width:1.5;" x1="721" x2="721" y1="148.8281" y2="169.6328"/><path d="M713,140.8281 C719,140.8281 721,142.8281 721,148.8281 " fill="none" style="stroke:#181818;stroke-width:1.5;"/><line style="stroke:#181818;stroke-width:1.5;" x1="502" x2="517" y1="177.6328" y2="177.6328"/><line style="stroke:#181818;stroke-width:1.5;" x1="714" x2="729" y1="177.6328" y2="177.6328"/><path d="M525,169.6328 C525,175.6328 527,177.6328 533,177.6328 " fill="none" style="stroke:#181818;stroke-width:1.5;"/><line style="stroke:#181818;stroke-width:1.5;" x1="525" x2="525" y1="164.8281" y2="169.6328"/><path d="M525,164.8281 C525,158.8281 527,156.8281 533,156.8281 " fill="none" style="stroke:#181818;stroke-width:1.5;"/><line style="stroke:#181818;stroke-width:1.5;" x1="532" x2="699" y1="156.8281" y2="156.8281"/><path d="M630.2,156.8281 L630.2,153.8281 L624.2,156.8281 L630.2,159.8281 L630.2,156.8281 " fill="#181818" style="stroke:#181818;stroke-width:1.5;"/><path d="M706,169.6328 C706,175.6328 704,177.6328 698,177.6328 " fill="none" style="stroke:#181818;stroke-width:1.5;"/><line style="stroke:#181818;stroke-width:1.5;" x1="706" x2="706" y1="164.8281" y2="169.6328"/><path d="M698,156.8281 C704,156.8281 706,158.8281 706,164.8281 " fill="none" style="stroke:#181818;stroke-width:1.5;"/><line style="stroke:#181818;stroke-width:1.5;" x1="517" x2="532" y1="177.6328" y2="177.6328"/><line style="stroke:#181818;stroke-width:1.5;" x1="699" x2="714" y1="177.6328" y2="177.6328"/><line style="stroke:#181818;stroke-width:1.5;" x1="532" x2="532" y1="177.6328" y2="177.6328"/><rect fill="none" height="27.6094" style="stroke:#181818;stroke-width:1.0;stroke-dasharray:5.0,5.0;" width="38" x="532" y="163.8281"/><text fill="#000000" font-family="sans-serif" font-size="14" lengthAdjust="spacing" textLength="28" x="537" y="183.3613">u\00</text><line style="stroke:#181818;stroke-width:1.5;" x1="570" x2="590" y1="177.6328" y2="177.6328"/><rect fill="none" height="27.6094" style="stroke:#181818;stroke-width:0.5;" width="109" x="590" y="163.8281"/><text fill="#000000" font-family="sans-serif" font-size="14" lengthAdjust="spacing" textLength="99" x="595" y="183.3613">Object Property</text><line style="stroke:#181818;stroke-width:1.5;" x1="729" x2="749" y1="177.6328" y2="177.6328"/><path d="M757,169.6328 C757,175.6328 755,177.6328 749,177.6328 " fill="none" style="stroke:#181818;stroke-width:1.5;"/><line style="stroke:#181818;stroke-width:1.5;" x1="757" x2="757" y1="148.8281" y2="169.6328"/><path d="M757,148.8281 C757,142.8281 759,140.8281 765,140.8281 " fill="none" style="stroke:#181818;stroke-width:1.5;"/><line style="stroke:#181818;stroke-width:1.5;" x1="765" x2="985" y1="140.8281" y2="140.8281"/><path d="M851,140.8281 L851,137.8281 L857,140.8281 L851,143.8281 L851,140.8281 " fill="#181818" style="stroke:#181818;stroke-width:1.5;"/><path d="M993,169.6328 C993,175.6328 995,177.6328 1001,177.6328 " fill="none" style="stroke:#181818;stroke-width:1.5;"/><line style="stroke:#181818;stroke-width:1.5;" x1="993" x2="993" y1="148.8281" y2="169.6328"/><path d="M985,140.8281 C991,140.8281 993,142.8281 993,148.8281 " fill="none" style="stroke:#181818;stroke-width:1.5;"/><line style="stroke:#181818;stroke-width:1.5;" x1="749" x2="764" y1="177.6328" y2="177.6328"/><line style="stroke:#181818;stroke-width:1.5;" x1="986" x2="1001" y1="177.6328" y2="177.6328"/><path d="M772,169.6328 C772,175.6328 774,177.6328 780,177.6328 " fill="none" style="stroke:#181818;stroke-width:1.5;"/><line style="stroke:#181818;stroke-width:1.5;" x1="772" x2="772" y1="164.8281" y2="169.6328"/><path d="M772,164.8281 C772,158.8281 774,156.8281 780,156.8281 " fill="none" style="stroke:#181818;stroke-width:1.5;"/><line style="stroke:#181818;stroke-width:1.5;" x1="779" x2="971" y1="156.8281" y2="156.8281"/><path d="M892.2,156.8281 L892.2,153.8281 L886.2,156.8281 L892.2,159.8281 L892.2,156.8281 " fill="#181818" style="stroke:#181818;stroke-width:1.5;"/><path d="M978,169.6328 C978,175.6328 976,177.6328 970,177.6328 " fill="none" style="stroke:#181818;stroke-width:1.5;"/><line style="stroke:#181818;stroke-width:1.5;" x1="978" x2="978" y1="164.8281" y2="169.6328"/><path d="M970,156.8281 C976,156.8281 978,158.8281 978,164.8281 " fill="none" style="stroke:#181818;stroke-width:1.5;"/><line style="stroke:#181818;stroke-width:1.5;" x1="764" x2="779" y1="177.6328" y2="177.6328"/><line style="stroke:#181818;stroke-width:1.5;" x1="971" x2="986" y1="177.6328" y2="177.6328"/><line style="stroke:#181818;stroke-width:1.5;" x1="779" x2="779" y1="177.6328" y2="177.6328"/><rect fill="none" height="27.6094" style="stroke:#181818;stroke-width:1.0;stroke-dasharray:5.0,5.0;" width="38" x="779" y="163.8281"/><text fill="#000000" font-family="sans-serif" font-size="14" lengthAdjust="spacing" textLength="28" x="784" y="183.3613">u\00</text><line style="stroke:#181818;stroke-width:1.5;" x1="817" x2="837" y1="177.6328" y2="177.6328"/><rect fill="none" height="27.6094" style="stroke:#181818;stroke-width:0.5;" width="134" x="837" y="163.8281"/><text fill="#000000" font-family="sans-serif" font-size="14" lengthAdjust="spacing" textLength="124" x="842" y="183.3613">SubObject Property</text><ellipse cx="14" cy="177.6328" fill="none" rx="4" ry="4" style="stroke:#181818;stroke-width:2.0;"/><ellipse cx="1031" cy="177.6328" fill="#181818" rx="4" ry="4" style="stroke:#181818;stroke-width:1.0;"/><line style="stroke:#181818;stroke-width:1.5;" x1="18" x2="40" y1="177.6328" y2="177.6328"/><line style="stroke:#181818;stroke-width:1.5;" x1="1001" x2="1027" y1="177.6328" y2="177.6328"/><path d="M1012,177.6328 L1012,174.6328 L1018,177.6328 L1012,180.6328 L1012,177.6328 " fill="#181818" style="stroke:#181818;stroke-width:1.5;"/><!--SRC=[ROz1Jy9058Jl-ojUUe84IQbWjCP0RDK89JGME7dPjezcJNdRR7URDCR_xg989NhRpEnyCszMQwuqfhHZiH9xhje5jd07pYfzmqp3kgtG6S3KlBhkT01E8ClIwa8IFEVMWFUJ9RyJbP8LAjqw7xSiCUaHPr__4_yYE-SyqJKTzVZKTBQZguf_JPaXvLzdihZaf3VB21fKzQ5rDFHSxt8uydgFIi3A1ZqNt6j_VEDFnX24QpZuVTPxYYEefL4PGYvghKHg3hFxRCuR3Y-6jDYZ3wiAQHukVWHue4OeINiapURRPVVXQdnnBpGagEmKs2vPY3jkIcqJcSm55Ju4rSYRU2pYL1XUM3WI2wG5gzQ7JV89]--></g></svg>
